<?xml version="1.0" encoding="UTF-8"?>
<!DOCTYPE svg PUBLIC "-//W3C//DTD SVG 1.1//EN" "http://www.w3.org/Graphics/SVG/1.1/DTD/svg11.dtd">
<svg xmlns="http://www.w3.org/2000/svg" version="1.1" width="192px" height="192px" style="shape-rendering:geometricPrecision; text-rendering:geometricPrecision; image-rendering:optimizeQuality; fill-rule:evenodd; clip-rule:evenodd" xmlns:xlink="http://www.w3.org/1999/xlink">
<g><path style="opacity:0.053" fill="#000000" d="M 116.5,191.5 C 102.5,191.5 88.5,191.5 74.5,191.5C 33.1056,179.935 8.60562,152.935 1,110.5C -2.27859,70.5621 12.5547,39.3955 45.5,17C 77.1726,-0.208899 109.173,-0.875566 141.5,15C 181.525,40.5697 196.692,76.7363 187,123.5C 178.475,151.689 160.975,172.189 134.5,185C 128.429,187.299 122.429,189.465 116.5,191.5 Z"/></g>
<g><path style="opacity:1" fill="#a0544e" d="M 122.5,13.5 C 121.262,13.81 121.262,14.31 122.5,15C 118.5,15.6667 118.5,16.3333 122.5,17C 119.456,17.3589 119.122,18.0255 121.5,19C 118.833,19.6667 118.833,20.3333 121.5,21C 118.833,21.6667 118.833,22.3333 121.5,23C 120.833,23.3333 120.167,23.6667 119.5,24C 119.833,25 120.167,26 120.5,27C 119.5,27.3333 118.5,27.6667 117.5,28C 118.973,28.7096 119.64,29.8762 119.5,31.5C 115.107,31.4568 114.774,31.9568 118.5,33C 117.167,33.6667 117.167,34.3333 118.5,35C 115.456,35.3589 115.122,36.0255 117.5,37C 115.699,37.3173 115.366,37.984 116.5,39C 112.5,39.6667 112.5,40.3333 116.5,41C 115.33,42.7547 113.663,43.7547 111.5,44C 114.946,44.7039 114.946,46.0372 111.5,48C 112.167,48.3333 112.833,48.6667 113.5,49C 113.048,50.6124 111.715,51.6124 109.5,52C 110.167,52.3333 110.833,52.6667 111.5,53C 111.048,54.6124 109.715,55.6124 107.5,56C 110.167,56.6667 110.167,57.3333 107.5,58C 107.833,58.3333 108.167,58.6667 108.5,59C 105.456,59.3589 105.122,60.0255 107.5,61C 106.692,61.3076 106.025,61.8076 105.5,62.5C 106.961,64.5168 108.294,66.5168 109.5,68.5C 108.833,68.5 108.167,68.5 107.5,68.5C 105.052,66.1364 102.052,65.1364 98.5,65.5C 90.2236,65.5043 83.8903,68.8377 79.5,75.5C 72.7888,88.4912 75.4555,99.3246 87.5,108C 94.4658,111.099 101.466,111.266 108.5,108.5C 108.119,109.931 107.119,110.764 105.5,111C 98.1667,111.333 90.8333,111.667 83.5,112C 86.8511,112.057 89.8511,112.891 92.5,114.5C 86.8643,114.812 84.531,117.812 85.5,123.5C 84.8333,124.5 84.1667,125.5 83.5,126.5C 83.5,125.5 83.5,124.5 83.5,123.5C 81.1667,123.5 78.8333,123.5 76.5,123.5C 75.7353,118.094 78.0687,116.094 83.5,117.5C 83.5,116.5 83.5,115.5 83.5,114.5C 74.4454,113.861 71.7788,117.528 75.5,125.5C 73.6112,124.62 71.6112,124.62 69.5,125.5C 73.0455,117.018 70.0455,113.351 60.5,114.5C 60.5,115.5 60.5,116.5 60.5,117.5C 62.8568,117.337 65.1902,117.503 67.5,118C 68.8333,119.667 68.8333,121.333 67.5,123C 65.1902,123.497 62.8568,123.663 60.5,123.5C 60.5,124.5 60.5,125.5 60.5,126.5C 60.1667,126.5 59.8333,126.5 59.5,126.5C 59.5,125.5 59.5,124.5 59.5,123.5C 49.7226,123.353 49.3893,122.353 58.5,120.5C 56.1667,119.833 53.8333,119.167 51.5,118.5C 51.6236,117.893 51.9569,117.56 52.5,117.5C 54.8333,117.5 57.1667,117.5 59.5,117.5C 59.5,116.5 59.5,115.5 59.5,114.5C 56.2869,114.19 53.2869,114.523 50.5,115.5C 49.5233,118.287 49.19,121.287 49.5,124.5C 48.8333,124.5 48.1667,124.5 47.5,124.5C 46.6138,122.278 46.6138,120.112 47.5,118C 47.2409,116.739 46.5742,115.739 45.5,115C 42.5184,114.502 39.5184,114.335 36.5,114.5C 36.5,115.5 36.5,116.5 36.5,117.5C 34.8008,117.34 33.1341,117.506 31.5,118C 31.8333,118.333 32.1667,118.667 32.5,119C 26.8333,119.333 21.1667,119.667 15.5,120C 18.1667,120.333 20.8333,120.667 23.5,121C 20.5738,121.218 17.7405,121.718 15,122.5C 13.3057,121.301 11.8057,119.968 10.5,118.5C 3.29729,90.0137 8.46396,64.0137 26,40.5C 27.3712,38.9586 28.8712,37.6253 30.5,36.5C 56.6883,10.7969 87.3549,3.13024 122.5,13.5 Z"/></g>
<g><path style="opacity:0.946" fill="#a96d68" d="M 148.5,25.5 C 144.222,23.0235 139.888,20.5235 135.5,18C 131.347,15.9208 127.014,14.4208 122.5,13.5C 87.3549,3.13024 56.6883,10.7969 30.5,36.5C 44.03,20.5587 61.3633,11.0587 82.5,8C 102.274,5.29535 120.941,8.62869 138.5,18C 142.3,19.9789 145.634,22.4789 148.5,25.5 Z"/></g>
<g><path style="opacity:1" fill="#9c4f48" d="M 122.5,13.5 C 127.014,14.4208 131.347,15.9208 135.5,18C 139.888,20.5235 144.222,23.0235 148.5,25.5C 155.058,29.2196 160.558,34.2196 165,40.5C 170.261,47.5887 174.428,55.2554 177.5,63.5C 175.658,62.9246 173.658,63.0913 171.5,64C 174.946,64.7039 174.946,66.0372 171.5,68C 172.167,68.3333 172.833,68.6667 173.5,69C 173.048,70.6124 171.715,71.6124 169.5,72C 170.167,72.3333 170.833,72.6667 171.5,73C 171.048,74.6124 169.715,75.6124 167.5,76C 168.167,76.3333 168.833,76.6667 169.5,77C 169.048,78.6124 167.715,79.6124 165.5,80C 166.167,80.3333 166.833,80.6667 167.5,81C 167.048,82.6124 165.715,83.6124 163.5,84C 164.167,84.3333 164.833,84.6667 165.5,85C 165.048,86.6124 163.715,87.6124 161.5,88C 162.167,88.3333 162.833,88.6667 163.5,89C 163.048,90.6124 161.715,91.6124 159.5,92C 162.167,92.6667 162.167,93.3333 159.5,94C 159.833,94.3333 160.167,94.6667 160.5,95C 157.456,95.3589 157.122,96.0255 159.5,97C 158.167,98 156.833,99 155.5,100C 156.641,100.741 156.641,101.575 155.5,102.5C 154.271,103.281 152.938,103.781 151.5,104C 152.167,104.333 152.833,104.667 153.5,105C 153.048,106.612 151.715,107.612 149.5,108C 150.167,108.333 150.833,108.667 151.5,109C 149.774,110.53 147.774,111.53 145.5,112C 146.5,112.333 147.5,112.667 148.5,113C 147.263,113.232 146.263,113.732 145.5,114.5C 142.861,115.706 142.028,117.706 143,120.5C 154.336,122.22 154.17,123.22 142.5,123.5C 141.778,124.551 140.778,125.218 139.5,125.5C 142.96,119.757 141.46,116.091 135,114.5C 132.808,114.863 130.974,115.863 129.5,117.5C 128.833,117.167 128.167,116.833 127.5,116.5C 126.341,114.623 124.674,114.123 122.5,115C 120.998,117.574 119.998,120.407 119.5,123.5C 118.682,120.893 118.182,118.226 118,115.5C 116.057,114.193 114.223,114.193 112.5,115.5C 111.833,115.5 111.5,115.833 111.5,116.5C 110.833,115.833 110.167,115.167 109.5,114.5C 106.482,114.335 103.482,114.502 100.5,115C 98.552,120.404 100.552,123.071 106.5,123C 104.19,123.497 101.857,123.663 99.5,123.5C 99.5,124.5 99.5,125.5 99.5,126.5C 98.2223,126.218 97.2223,125.551 96.5,124.5C 98.4711,119.783 97.1378,116.449 92.5,114.5C 89.8511,112.891 86.8511,112.057 83.5,112C 90.8333,111.667 98.1667,111.333 105.5,111C 107.119,110.764 108.119,109.931 108.5,108.5C 119.729,100.056 122.563,89.3897 117,76.5C 114.972,73.3078 112.472,70.6411 109.5,68.5C 108.294,66.5168 106.961,64.5168 105.5,62.5C 106.025,61.8076 106.692,61.3076 107.5,61C 105.122,60.0255 105.456,59.3589 108.5,59C 108.167,58.6667 107.833,58.3333 107.5,58C 110.167,57.3333 110.167,56.6667 107.5,56C 109.715,55.6124 111.048,54.6124 111.5,53C 110.833,52.6667 110.167,52.3333 109.5,52C 111.715,51.6124 113.048,50.6124 113.5,49C 112.833,48.6667 112.167,48.3333 111.5,48C 114.946,46.0372 114.946,44.7039 111.5,44C 113.663,43.7547 115.33,42.7547 116.5,41C 112.5,40.3333 112.5,39.6667 116.5,39C 115.366,37.984 115.699,37.3173 117.5,37C 115.122,36.0255 115.456,35.3589 118.5,35C 117.167,34.3333 117.167,33.6667 118.5,33C 114.774,31.9568 115.107,31.4568 119.5,31.5C 119.64,29.8762 118.973,28.7096 117.5,28C 118.5,27.6667 119.5,27.3333 120.5,27C 120.167,26 119.833,25 119.5,24C 120.167,23.6667 120.833,23.3333 121.5,23C 118.833,22.3333 118.833,21.6667 121.5,21C 118.833,20.3333 118.833,19.6667 121.5,19C 119.122,18.0255 119.456,17.3589 122.5,17C 118.5,16.3333 118.5,15.6667 122.5,15C 121.262,14.31 121.262,13.81 122.5,13.5 Z"/></g>
<g><path style="opacity:1" fill="#994a43" d="M 177.5,63.5 C 191.802,108.093 179.802,143.926 141.5,171C 131.087,177.526 119.754,181.36 107.5,182.5C 96.0871,182.8 84.7538,182.133 73.5,180.5C 67.3335,179.668 61.6668,177.668 56.5,174.5C 59.1761,175.008 61.8428,175.175 64.5,175C 64.1667,174.667 63.8333,174.333 63.5,174C 65.5,173.667 67.5,173.333 69.5,173C 68.8333,172.667 68.1667,172.333 67.5,172C 72.1478,171.906 75.8144,170.906 78.5,169C 77.5,168.667 76.5,168.333 75.5,168C 79.471,167.915 83.1377,166.915 86.5,165C 85.5,164.667 84.5,164.333 83.5,164C 85.8333,163.667 88.1667,163.333 90.5,163C 90.1667,162.667 89.8333,162.333 89.5,162C 90.8333,161.667 92.1667,161.333 93.5,161C 92.8333,160.667 92.1667,160.333 91.5,160C 94.7084,159.597 97.7084,158.597 100.5,157C 100.167,156.667 99.8333,156.333 99.5,156C 101.953,155.273 104.286,154.273 106.5,153C 105.5,152.667 104.5,152.333 103.5,152C 106.488,151.783 109.155,150.783 111.5,149C 110.833,148.667 110.167,148.333 109.5,148C 111.167,147.667 112.833,147.333 114.5,147C 114.167,146.667 113.833,146.333 113.5,146C 114.5,145.667 115.5,145.333 116.5,145C 116.167,144.667 115.833,144.333 115.5,144C 117.774,143.53 119.774,142.53 121.5,141C 120.833,140.667 120.167,140.333 119.5,140C 121.167,139.667 122.833,139.333 124.5,139C 124.167,138.667 123.833,138.333 123.5,138C 127.5,137.333 127.5,136.667 123.5,136C 125.167,135.667 126.833,135.333 128.5,135C 128.167,134.667 127.833,134.333 127.5,134C 131.5,133.333 131.5,132.667 127.5,132C 129.167,131.667 130.833,131.333 132.5,131C 132.167,130.667 131.833,130.333 131.5,130C 135.5,129.333 135.5,128.667 131.5,128C 134.036,127.814 136.369,127.314 138.5,126.5C 138.5,125.833 138.833,125.5 139.5,125.5C 140.778,125.218 141.778,124.551 142.5,123.5C 142.5,124.5 142.5,125.5 142.5,126.5C 145.85,126.665 149.183,126.498 152.5,126C 154.211,124.867 154.711,123.367 154,121.5C 151.426,119.998 148.593,118.998 145.5,118.5C 148.428,117.516 151.428,117.183 154.5,117.5C 154.5,116.5 154.5,115.5 154.5,114.5C 151.5,114.5 148.5,114.5 145.5,114.5C 146.263,113.732 147.263,113.232 148.5,113C 147.5,112.667 146.5,112.333 145.5,112C 147.774,111.53 149.774,110.53 151.5,109C 150.833,108.667 150.167,108.333 149.5,108C 151.715,107.612 153.048,106.612 153.5,105C 152.833,104.667 152.167,104.333 151.5,104C 152.938,103.781 154.271,103.281 155.5,102.5C 156.641,101.575 156.641,100.741 155.5,100C 156.833,99 158.167,98 159.5,97C 157.122,96.0255 157.456,95.3589 160.5,95C 160.167,94.6667 159.833,94.3333 159.5,94C 162.167,93.3333 162.167,92.6667 159.5,92C 161.715,91.6124 163.048,90.6124 163.5,89C 162.833,88.6667 162.167,88.3333 161.5,88C 163.715,87.6124 165.048,86.6124 165.5,85C 164.833,84.6667 164.167,84.3333 163.5,84C 165.715,83.6124 167.048,82.6124 167.5,81C 166.833,80.6667 166.167,80.3333 165.5,80C 167.715,79.6124 169.048,78.6124 169.5,77C 168.833,76.6667 168.167,76.3333 167.5,76C 169.715,75.6124 171.048,74.6124 171.5,73C 170.833,72.6667 170.167,72.3333 169.5,72C 171.715,71.6124 173.048,70.6124 173.5,69C 172.833,68.6667 172.167,68.3333 171.5,68C 174.946,66.0372 174.946,64.7039 171.5,64C 173.658,63.0913 175.658,62.9246 177.5,63.5 Z"/></g>
<g><path style="opacity:1" fill="#f0c8c5" d="M 107.5,68.5 C 102.871,67.519 98.2041,67.3523 93.5,68C 103.133,68.2794 103.633,69.7794 95,72.5C 93.1291,71.3322 91.6291,71.8322 90.5,74C 91.056,74.3826 91.3893,74.8826 91.5,75.5C 87.0012,76.6498 85.6679,79.3164 87.5,83.5C 85.6921,82.0821 85.0254,80.0821 85.5,77.5C 86.2876,74.03 88.2876,71.3633 91.5,69.5C 86.3324,69.6122 82.6657,72.2789 80.5,77.5C 79.6618,77.1583 79.3284,76.4916 79.5,75.5C 83.8903,68.8377 90.2236,65.5043 98.5,65.5C 102.052,65.1364 105.052,66.1364 107.5,68.5 Z"/></g>
<g><path style="opacity:1" fill="#da9397" d="M 107.5,68.5 C 112.032,71.8892 115.365,76.2225 117.5,81.5C 116.596,82.209 116.263,83.209 116.5,84.5C 114.167,84.5 111.833,84.5 109.5,84.5C 109.719,83.325 109.386,82.325 108.5,81.5C 107.592,84.2975 108.259,86.7975 110.5,89C 107.057,89.2213 106.724,90.2213 109.5,92C 107.241,91.5613 104.908,91.0613 102.5,90.5C 102.613,87.9512 101.946,85.6179 100.5,83.5C 101.833,82.1667 103.167,80.8333 104.5,79.5C 103.91,78.2011 102.91,77.3678 101.5,77C 104.089,75.8035 106.756,74.8035 109.5,74C 107.375,73.1839 105.541,72.0173 104,70.5C 101,72.8018 98.3334,75.4685 96,78.5C 95.4785,75.4176 93.9785,74.4176 91.5,75.5C 91.3893,74.8826 91.056,74.3826 90.5,74C 91.6291,71.8322 93.1291,71.3322 95,72.5C 103.633,69.7794 103.133,68.2794 93.5,68C 98.2041,67.3523 102.871,67.519 107.5,68.5 Z"/></g>
<g><path style="opacity:1" fill="#c16f6c" d="M 117.5,81.5 C 119.627,88.6373 118.293,94.9706 113.5,100.5C 113.631,99.6236 113.298,98.9569 112.5,98.5C 110.253,99.3742 107.92,99.7076 105.5,99.5C 104.524,98.1851 103.524,96.8518 102.5,95.5C 104.976,92.1475 104.476,91.8141 101,94.5C 100.722,93.5842 100.222,92.9175 99.5,92.5C 99.8039,91.8501 100.137,91.1835 100.5,90.5C 100.154,89.3044 99.6543,89.3044 99,90.5C 98.0766,89.2412 97.2432,87.9079 96.5,86.5C 95.914,86.7093 95.414,87.0426 95,87.5C 92.3604,86.3442 89.8604,85.0109 87.5,83.5C 85.6679,79.3164 87.0012,76.6498 91.5,75.5C 93.9785,74.4176 95.4785,75.4176 96,78.5C 98.3334,75.4685 101,72.8018 104,70.5C 105.541,72.0173 107.375,73.1839 109.5,74C 106.756,74.8035 104.089,75.8035 101.5,77C 102.91,77.3678 103.91,78.2011 104.5,79.5C 103.167,80.8333 101.833,82.1667 100.5,83.5C 101.946,85.6179 102.613,87.9512 102.5,90.5C 104.908,91.0613 107.241,91.5613 109.5,92C 106.724,90.2213 107.057,89.2213 110.5,89C 108.259,86.7975 107.592,84.2975 108.5,81.5C 109.386,82.325 109.719,83.325 109.5,84.5C 111.833,84.5 114.167,84.5 116.5,84.5C 116.263,83.209 116.596,82.209 117.5,81.5 Z"/></g>
<g><path style="opacity:1" fill="#cb7c79" d="M 85.5,77.5 C 83.3523,77.3894 83.019,78.056 84.5,79.5C 82.0096,84.4474 82.0096,89.4474 84.5,94.5C 84.0814,95.6721 83.4147,96.6721 82.5,97.5C 84.9607,99.7399 87.6274,100.073 90.5,98.5C 90.5792,99.9305 90.2458,101.264 89.5,102.5C 90.9906,104.012 92.8239,105.012 95,105.5C 95.4696,106.577 95.3029,107.577 94.5,108.5C 84.0326,105.77 78.3659,98.9369 77.5,88C 77.5971,84.2124 78.5971,80.7124 80.5,77.5C 82.6657,72.2789 86.3324,69.6122 91.5,69.5C 88.2876,71.3633 86.2876,74.03 85.5,77.5 Z"/></g>
<g><path style="opacity:1" fill="#f2bfb7" d="M 107.5,68.5 C 108.167,68.5 108.833,68.5 109.5,68.5C 112.472,70.6411 114.972,73.3078 117,76.5C 122.563,89.3897 119.729,100.056 108.5,108.5C 101.466,111.266 94.4658,111.099 87.5,108C 75.4555,99.3246 72.7888,88.4912 79.5,75.5C 79.3284,76.4916 79.6618,77.1583 80.5,77.5C 78.5971,80.7124 77.5971,84.2124 77.5,88C 78.3659,98.9369 84.0326,105.77 94.5,108.5C 96.8333,108.5 99.1667,108.5 101.5,108.5C 106.842,107.821 110.842,105.155 113.5,100.5C 118.293,94.9706 119.627,88.6373 117.5,81.5C 115.365,76.2225 112.032,71.8892 107.5,68.5 Z"/></g>
<g><path style="opacity:1" fill="#e4b4b8" d="M 114.5,89.5 C 115.649,89.7911 116.316,90.6244 116.5,92C 116.642,94.9122 115.309,96.4122 112.5,96.5C 113.449,94.2627 114.116,91.9294 114.5,89.5 Z"/></g>
<g><path style="opacity:1" fill="#bb6a66" d="M 99.5,92.5 C 99.33,93.8221 99.6634,94.9887 100.5,96C 99.9747,96.6924 99.3081,97.1924 98.5,97.5C 97.7425,96.1886 96.7425,95.6886 95.5,96C 94.3492,98.4641 93.3492,100.964 92.5,103.5C 94.1667,103.5 95.8333,103.5 97.5,103.5C 97.3433,104.873 97.51,106.207 98,107.5C 99.5788,106.2 100.745,106.534 101.5,108.5C 99.1667,108.5 96.8333,108.5 94.5,108.5C 95.3029,107.577 95.4696,106.577 95,105.5C 92.8239,105.012 90.9906,104.012 89.5,102.5C 90.2458,101.264 90.5792,99.9305 90.5,98.5C 90.3059,96.0882 88.9726,95.0882 86.5,95.5C 85.068,92.0316 85.7347,89.0316 88.5,86.5C 91.2185,89.0489 93.7185,91.7156 96,94.5C 96.7096,93.0267 97.8762,92.3601 99.5,92.5 Z"/></g>
<g><path style="opacity:1" fill="#dda3a3" d="M 85.5,77.5 C 85.0254,80.0821 85.6921,82.0821 87.5,83.5C 89.8604,85.0109 92.3604,86.3442 95,87.5C 95.414,87.0426 95.914,86.7093 96.5,86.5C 97.2432,87.9079 98.0766,89.2412 99,90.5C 99.6543,89.3044 100.154,89.3044 100.5,90.5C 100.137,91.1835 99.8039,91.8501 99.5,92.5C 97.8762,92.3601 96.7096,93.0267 96,94.5C 93.7185,91.7156 91.2185,89.0489 88.5,86.5C 85.7347,89.0316 85.068,92.0316 86.5,95.5C 88.9726,95.0882 90.3059,96.0882 90.5,98.5C 87.6274,100.073 84.9607,99.7399 82.5,97.5C 83.4147,96.6721 84.0814,95.6721 84.5,94.5C 82.0096,89.4474 82.0096,84.4474 84.5,79.5C 83.019,78.056 83.3523,77.3894 85.5,77.5 Z"/></g>
<g><path style="opacity:1" fill="#d48987" d="M 99.5,92.5 C 100.222,92.9175 100.722,93.5842 101,94.5C 104.476,91.8141 104.976,92.1475 102.5,95.5C 103.524,96.8518 104.524,98.1851 105.5,99.5C 102.902,101.704 103.402,103.371 107,104.5C 108.551,102.106 110.718,100.773 113.5,100.5C 110.842,105.155 106.842,107.821 101.5,108.5C 100.745,106.534 99.5788,106.2 98,107.5C 97.51,106.207 97.3433,104.873 97.5,103.5C 95.8333,103.5 94.1667,103.5 92.5,103.5C 93.3492,100.964 94.3492,98.4641 95.5,96C 96.7425,95.6886 97.7425,96.1886 98.5,97.5C 99.3081,97.1924 99.9747,96.6924 100.5,96C 99.6634,94.9887 99.33,93.8221 99.5,92.5 Z"/></g>
<g><path style="opacity:1" fill="#e6bdbe" d="M 113.5,100.5 C 110.718,100.773 108.551,102.106 107,104.5C 103.402,103.371 102.902,101.704 105.5,99.5C 107.92,99.7076 110.253,99.3742 112.5,98.5C 113.298,98.9569 113.631,99.6236 113.5,100.5 Z"/></g>
<g><path style="opacity:1" fill="#e0c8c5" d="M 50.5,115.5 C 53.2869,114.523 56.2869,114.19 59.5,114.5C 59.5,115.5 59.5,116.5 59.5,117.5C 57.1667,117.5 54.8333,117.5 52.5,117.5C 54.2922,116.691 56.2922,116.191 58.5,116C 55.854,115.503 53.1873,115.336 50.5,115.5 Z"/></g>
<g><path style="opacity:1" fill="#f5eded" d="M 127.5,116.5 C 127.5,119.833 127.5,123.167 127.5,126.5C 125.906,123.939 124.906,120.939 124.5,117.5C 123.727,119.813 123.06,122.146 122.5,124.5C 120.647,125.76 118.814,125.76 117,124.5C 117.03,121.639 116.197,119.305 114.5,117.5C 113.683,119.969 113.183,122.635 113,125.5C 112.502,122.183 112.335,118.85 112.5,115.5C 114.223,114.193 116.057,114.193 118,115.5C 118.182,118.226 118.682,120.893 119.5,123.5C 119.998,120.407 120.998,117.574 122.5,115C 124.674,114.123 126.341,114.623 127.5,116.5 Z"/></g>
<g><path style="opacity:1" fill="#efe2e1" d="M 139.5,125.5 C 138.833,125.5 138.5,125.833 138.5,126.5C 134.888,127.076 131.888,126.076 129.5,123.5C 129.5,121.5 129.5,119.5 129.5,117.5C 130.974,115.863 132.808,114.863 135,114.5C 141.46,116.091 142.96,119.757 139.5,125.5 Z"/></g>
<g><path style="opacity:1" fill="#efe2e1" d="M 69.5,125.5 C 66.6085,126.403 63.6085,126.736 60.5,126.5C 60.5,125.5 60.5,124.5 60.5,123.5C 62.8568,123.663 65.1902,123.497 67.5,123C 68.8333,121.333 68.8333,119.667 67.5,118C 65.1902,117.503 62.8568,117.337 60.5,117.5C 60.5,116.5 60.5,115.5 60.5,114.5C 70.0455,113.351 73.0455,117.018 69.5,125.5 Z"/></g>
<g><path style="opacity:1" fill="#f3e9e8" d="M 92.5,114.5 C 97.1378,116.449 98.4711,119.783 96.5,124.5C 92.5593,127.344 88.8927,127.011 85.5,123.5C 84.531,117.812 86.8643,114.812 92.5,114.5 Z"/></g>
<g><path style="opacity:1" fill="#ac6b65" d="M 109.5,114.5 C 110.167,115.167 110.833,115.833 111.5,116.5C 111.5,119.833 111.5,123.167 111.5,126.5C 110.833,126.167 110.167,125.833 109.5,125.5C 109.739,123.533 109.406,121.699 108.5,120C 99.4577,118.63 99.791,117.797 109.5,117.5C 109.5,116.5 109.5,115.5 109.5,114.5 Z"/></g>
<g><path style="opacity:1" fill="#d8b9b6" d="M 112.5,115.5 C 112.335,118.85 112.502,122.183 113,125.5C 113.183,122.635 113.683,119.969 114.5,117.5C 114.5,120.5 114.5,123.5 114.5,126.5C 113.5,126.5 112.5,126.5 111.5,126.5C 111.5,123.167 111.5,119.833 111.5,116.5C 111.5,115.833 111.833,115.5 112.5,115.5 Z"/></g>
<g><path style="opacity:1" fill="#b47a76" d="M 127.5,116.5 C 128.167,116.833 128.833,117.167 129.5,117.5C 129.5,119.5 129.5,121.5 129.5,123.5C 128.833,124.5 128.167,125.5 127.5,126.5C 127.5,123.167 127.5,119.833 127.5,116.5 Z"/></g>
<g><path style="opacity:1" fill="#9f554e" d="M 133.5,117.5 C 138.159,117.015 139.492,118.848 137.5,123C 135.866,123.494 134.199,123.66 132.5,123.5C 132.325,121.379 132.659,119.379 133.5,117.5 Z"/></g>
<g><path style="opacity:1" fill="#f5edec" d="M 50.5,115.5 C 53.1873,115.336 55.854,115.503 58.5,116C 56.2922,116.191 54.2922,116.691 52.5,117.5C 51.9569,117.56 51.6236,117.893 51.5,118.5C 53.8333,119.167 56.1667,119.833 58.5,120.5C 49.3893,122.353 49.7226,123.353 59.5,123.5C 59.5,124.5 59.5,125.5 59.5,126.5C 56.4816,126.665 53.4816,126.498 50.5,126C 49.944,125.617 49.6107,125.117 49.5,124.5C 49.19,121.287 49.5233,118.287 50.5,115.5 Z"/></g>
<g><path style="opacity:1" fill="#efe3e2" d="M 83.5,126.5 C 80.7212,126.721 78.0545,126.388 75.5,125.5C 71.7788,117.528 74.4454,113.861 83.5,114.5C 83.5,115.5 83.5,116.5 83.5,117.5C 78.0687,116.094 75.7353,118.094 76.5,123.5C 78.8333,123.5 81.1667,123.5 83.5,123.5C 83.5,124.5 83.5,125.5 83.5,126.5 Z"/></g>
<g><path style="opacity:1" fill="#f1e6e4" d="M 109.5,114.5 C 109.5,115.5 109.5,116.5 109.5,117.5C 99.791,117.797 99.4577,118.63 108.5,120C 109.406,121.699 109.739,123.533 109.5,125.5C 106.272,126.414 102.939,126.747 99.5,126.5C 99.5,125.5 99.5,124.5 99.5,123.5C 101.857,123.663 104.19,123.497 106.5,123C 100.552,123.071 98.552,120.404 100.5,115C 103.482,114.502 106.482,114.335 109.5,114.5 Z"/></g>
<g><path style="opacity:1" fill="#f1e6e5" d="M 145.5,114.5 C 148.5,114.5 151.5,114.5 154.5,114.5C 154.5,115.5 154.5,116.5 154.5,117.5C 151.428,117.183 148.428,117.516 145.5,118.5C 148.593,118.998 151.426,119.998 154,121.5C 154.711,123.367 154.211,124.867 152.5,126C 149.183,126.498 145.85,126.665 142.5,126.5C 142.5,125.5 142.5,124.5 142.5,123.5C 154.17,123.22 154.336,122.22 143,120.5C 142.028,117.706 142.861,115.706 145.5,114.5 Z"/></g>
<g><path style="opacity:1" fill="#f2e7e6" d="M 47.5,124.5 C 47.1788,126.048 46.1788,126.715 44.5,126.5C 44.5,124.833 44.5,123.167 44.5,121.5C 42.8333,121.5 41.1667,121.5 39.5,121.5C 39.5,123.167 39.5,124.833 39.5,126.5C 38.5,126.5 37.5,126.5 36.5,126.5C 36.5,123.5 36.5,120.5 36.5,117.5C 36.5,116.5 36.5,115.5 36.5,114.5C 39.5184,114.335 42.5184,114.502 45.5,115C 46.5742,115.739 47.2409,116.739 47.5,118C 46.6138,120.112 46.6138,122.278 47.5,124.5 Z"/></g>
<g><path style="opacity:1" fill="#9b4d47" d="M 36.5,117.5 C 36.5,120.5 36.5,123.5 36.5,126.5C 37.5,126.5 38.5,126.5 39.5,126.5C 39.5,124.833 39.5,123.167 39.5,121.5C 41.1667,121.5 42.8333,121.5 44.5,121.5C 44.5,123.167 44.5,124.833 44.5,126.5C 46.1788,126.715 47.1788,126.048 47.5,124.5C 48.1667,124.5 48.8333,124.5 49.5,124.5C 49.6107,125.117 49.944,125.617 50.5,126C 53.4816,126.498 56.4816,126.665 59.5,126.5C 59.8333,126.5 60.1667,126.5 60.5,126.5C 63.6085,126.736 66.6085,126.403 69.5,125.5C 71.6112,124.62 73.6112,124.62 75.5,125.5C 78.0545,126.388 80.7212,126.721 83.5,126.5C 84.1667,125.5 84.8333,124.5 85.5,123.5C 88.8927,127.011 92.5593,127.344 96.5,124.5C 97.2223,125.551 98.2223,126.218 99.5,126.5C 102.939,126.747 106.272,126.414 109.5,125.5C 110.167,125.833 110.833,126.167 111.5,126.5C 112.5,126.5 113.5,126.5 114.5,126.5C 114.5,123.5 114.5,120.5 114.5,117.5C 116.197,119.305 117.03,121.639 117,124.5C 118.814,125.76 120.647,125.76 122.5,124.5C 123.06,122.146 123.727,119.813 124.5,117.5C 124.906,120.939 125.906,123.939 127.5,126.5C 128.167,125.5 128.833,124.5 129.5,123.5C 131.888,126.076 134.888,127.076 138.5,126.5C 136.369,127.314 134.036,127.814 131.5,128C 135.5,128.667 135.5,129.333 131.5,130C 131.833,130.333 132.167,130.667 132.5,131C 130.833,131.333 129.167,131.667 127.5,132C 131.5,132.667 131.5,133.333 127.5,134C 127.833,134.333 128.167,134.667 128.5,135C 126.833,135.333 125.167,135.667 123.5,136C 127.5,136.667 127.5,137.333 123.5,138C 123.833,138.333 124.167,138.667 124.5,139C 122.833,139.333 121.167,139.667 119.5,140C 120.167,140.333 120.833,140.667 121.5,141C 119.774,142.53 117.774,143.53 115.5,144C 115.833,144.333 116.167,144.667 116.5,145C 115.5,145.333 114.5,145.667 113.5,146C 113.833,146.333 114.167,146.667 114.5,147C 112.833,147.333 111.167,147.667 109.5,148C 110.167,148.333 110.833,148.667 111.5,149C 109.155,150.783 106.488,151.783 103.5,152C 104.5,152.333 105.5,152.667 106.5,153C 104.286,154.273 101.953,155.273 99.5,156C 99.8333,156.333 100.167,156.667 100.5,157C 97.7084,158.597 94.7084,159.597 91.5,160C 92.1667,160.333 92.8333,160.667 93.5,161C 92.1667,161.333 90.8333,161.667 89.5,162C 89.8333,162.333 90.1667,162.667 90.5,163C 88.1667,163.333 85.8333,163.667 83.5,164C 84.5,164.333 85.5,164.667 86.5,165C 83.1377,166.915 79.471,167.915 75.5,168C 76.5,168.333 77.5,168.667 78.5,169C 75.8144,170.906 72.1478,171.906 67.5,172C 68.1667,172.333 68.8333,172.667 69.5,173C 67.5,173.333 65.5,173.667 63.5,174C 63.8333,174.333 64.1667,174.667 64.5,175C 61.8428,175.175 59.1761,175.008 56.5,174.5C 32.7747,162.77 17.4413,144.104 10.5,118.5C 11.8057,119.968 13.3057,121.301 15,122.5C 17.7405,121.718 20.5738,121.218 23.5,121C 20.8333,120.667 18.1667,120.333 15.5,120C 21.1667,119.667 26.8333,119.333 32.5,119C 32.1667,118.667 31.8333,118.333 31.5,118C 33.1341,117.506 34.8008,117.34 36.5,117.5 Z"/></g>
<g><path style="opacity:1" fill="#a6605a" d="M 88.5,117.5 C 93.1225,116.408 94.9558,118.075 94,122.5C 88.4205,124.752 86.5871,123.085 88.5,117.5 Z"/></g>
<g><path style="opacity:1" fill="#ae6f69" d="M 39.5,117.5 C 41.288,117.215 42.9547,117.548 44.5,118.5C 43.6667,118.833 42.8333,119.167 42,119.5C 40.6244,119.316 39.7911,118.649 39.5,117.5 Z"/></g>
<g><path style="opacity:1" fill="#743833" d="M 73.5,180.5 C 84.7538,182.133 96.0871,182.8 107.5,182.5C 99.3437,183.657 91.0104,183.823 82.5,183C 79.2578,182.594 76.2578,181.761 73.5,180.5 Z"/></g>
</svg>
